# xmcd
#
# Track frame offsets:
# 150
# 5707
# 51463
# 108752
# 115379
# 147744
# 202951
# 243470
#
# Disc length: 3333 seconds
#
#
# Revision: 0
# Processed by: cddbd v1.5.2PL0 Copyright (c) Steve Scherf et al.
# Submitted via: FreeRIP 2.943 
#
DISCID=750d0308
DTITLE=one starving day - atlas coelestis
DYEAR=2010
DGENRE=Psychedelic
TTITLE0=meridians
TTITLE1=the drift of andromeda
TTITLE2=black-black
TTITLE3=descending orion
TTITLE4=an evil light
TTITLE5=disclosure/radiance
TTITLE6=aurora
TTITLE7=atlas coelestis
EXTD=
EXTT0=
EXTT1=
EXTT2=
EXTT3=
EXTT4=
EXTT5=
EXTT6=
EXTT7=
PLAYORDER=
